<svg width="16" height="16" viewBox="0 0 16 16" fill="none" xmlns="http://www.w3.org/2000/svg" class="PlayButton_module_replayIcon__b9d5abe0"><path class="fill" d="M0 1V5C0 5.6 0.4 6 1 6H5C5.6 6 6 5.6 6 5C6 4.4 5.6 4 5 4H3.5C4.6 2.8 6.2 2 8 2C11.3 2 14 4.7 14 8C14 11.3 11.3 14 8 14C5.7 14 3.60001 12.7 2.60001 10.6C2.40001 10.1 1.79999 9.89998 1.29999 10.1C0.799988 10.3 0.599988 10.9 0.799988 11.4C2.09999 14.2 5 16 8 16C12.4 16 16 12.4 16 8C16 3.6 12.4 0 8 0C5.7 0 3.5 1.00001 2 2.70001V1C2 0.4 1.6 0 1 0C0.4 0 0 0.4 0 1Z"></path></svg>