<svg viewBox="0 0 24 24" fill="none" class="share-icon ShareButton_module_shareIcon__26260904" focusable="false" xmlns="http://www.w3.org/2000/svg"><path fill-rule="evenodd" clip-rule="evenodd" d="M19.34 2.096c1.577-.496 3.06.987 2.564 2.564l-4.999 15.908c-.547 1.742-2.93 1.948-3.768.324L9.73 14.29a.045.045 0 0 0-.019-.02l-6.603-3.406c-1.624-.837-1.419-3.22.324-3.768l15.908-5ZM19.958 4s-.008 0-.018.004L4.032 9.003c-.015.004-.021.009-.021.009l-.002.002A.058.058 0 0 0 4 9.042a.058.058 0 0 0 .004.03l.002.001s.005.006.018.013l6.251 3.224 5.026-5.026a1 1 0 1 1 1.414 1.414l-5.025 5.026 3.224 6.252a.077.077 0 0 0 .013.018l.002.002a.06.06 0 0 0 .03.004.058.058 0 0 0 .027-.009l.002-.002s.005-.006.01-.02L19.995 4.06C20 4.05 20 4.042 20 4.042v-.005a.055.055 0 0 0-.015-.022.053.053 0 0 0-.022-.014h-.005Z" fill="#0E1216"></path></svg>